<svg viewBox="0 0 16 16" fill="none" xmlns="http://www.w3.org/2000/svg">
    <path d="M0 11V5H1V3H2V2H3V1H5V0H11V1H13V2H14V3H15V5H16V11H15V13H14V14H13V15H11V16H5V15H3V14H2V13H1V11H0Z"
          fill="black"/>
    <path d="M1 8H5H8V1H5V2H3V3H2V5H1V8Z" fill="#1777B2"/>
    <rect x="6" y="2" width="1" height="1" fill="white"/>
    <rect x="6" y="4" width="1" height="1" fill="white"/>
    <rect x="6" y="6" width="1" height="1" fill="white"/>
    <rect x="4" y="6" width="1" height="1" fill="white"/>
    <rect x="2" y="6" width="1" height="1" fill="white"/>
    <rect x="2" y="4" width="1" height="1" fill="white"/>
    <rect x="4" y="4" width="1" height="1" fill="white"/>
    <rect x="4" y="2" width="1" height="1" fill="white"/>
    <path d="M3 5V3H5V4H4V5H3Z" fill="#229EDD"/>
    <path d="M8 1H11V2H12.5H13V3H14V5H15V11H14V13H13V14H11V15H5V14H3V13H2V11H1V8H8V1Z" fill="#DE371B"/>
    <rect x="2" y="12" width="12" height="1" fill="white"/>
    <rect x="1" y="10" width="14" height="1" fill="white"/>
    <rect x="1" y="8" width="14" height="1" fill="white"/>
    <rect x="8" y="6" width="7" height="1" fill="white"/>
    <rect x="8" y="4" width="6" height="1" fill="white"/>
    <rect x="8" y="2" width="5" height="1" fill="white"/>
    <rect x="5" y="14" width="6" height="1" fill="#B5301E"/>
    <rect x="3" y="13" width="10" height="1" fill="#B5301E"/>
    <rect x="2" y="11" width="3" height="1" fill="#B5301E"/>
    <rect x="11" y="11" width="3" height="1" fill="#B5301E"/>
    <rect x="14" y="9" width="1" height="1" fill="#B5301E"/>
    <rect x="1" y="9" width="1" height="1" fill="#B5301E"/>
    <rect x="8" y="7" width="1" height="1" fill="#B5301E"/>
    <rect x="8" y="5" width="1" height="1" fill="#B5301E"/>
    <rect x="8" y="3" width="1" height="1" fill="#B5301E"/>
    <rect x="8" y="1" width="1" height="1" fill="#B5301E"/>
    <rect x="10" y="1" width="1" height="1" fill="#B5301E"/>
    <rect x="13" y="3" width="1" height="1" fill="#B5301E"/>
</svg>
