<svg viewBox="0 0 16 12" fill="none" xmlns="http://www.w3.org/2000/svg">
    <path d="M1 4V5H3V4H1Z" fill="#035B5A"/>
    <path d="M0 8H1V7V6V5H0V8Z" fill="#035B5A"/>
    <path d="M3 9V8H1V9H3Z" fill="#035B5A"/>
    <path d="M3 7H4V6H3V7Z" fill="#02B77B"/>
    <path d="M1 8H3V7H1V8Z" fill="#02B77B"/>
    <path d="M3 5H1V6H3V5Z" fill="#02B77B"/>
    <path d="M8 1V3H11V2H10V1H8Z" fill="#02B77B"/>
    <path d="M5 3V4H13V3H12V2H11V3H8V1H7V3H5Z" fill="#035B5A"/>
    <path d="M8 0V1H10V0H8Z" fill="#035B5A"/>
    <path d="M11 1H10V2H11V1Z" fill="#035B5A"/>
    <path d="M9 11V12H11V11H9Z" fill="#035B5A"/>
    <path d="M5 9V10H8V11H9V10H11V11H12V10H13V9H5Z" fill="#035B5A"/>
    <path d="M13 9H15V8H13V9Z" fill="#035B5A"/>
    <path d="M5 8H4V9H5V8Z" fill="#035B5A"/>
    <path d="M3 7V8H4V7H3Z" fill="#035B5A"/>
    <path d="M4 4V5H5V4H4Z" fill="#035B5A"/>
    <path d="M3 5V6H4V5H3Z" fill="#035B5A"/>
    <path d="M13 5H12V7H14V6H13V5Z" fill="#035B5A"/>
    <path d="M13 6H14V5H13V6Z" fill="white"/>
    <path d="M14 6H15V5H14V6Z" fill="#C8F671"/>
    <path fill-rule="evenodd" clip-rule="evenodd" d="M4 7V6V5H5V4H13V5H12V7H11V5H10V8H9V5H8V8H7V5H6V8H5V7H4Z"
          fill="#C8F671"/>
    <path d="M15 5V4H13V5H14H15Z" fill="#035B5A"/>
    <path fill-rule="evenodd" clip-rule="evenodd" d="M5 9V8H6V5H7V8H8V5H9V8H10V5H11V7H12H14V6H15V8H13V9H5Z"
          fill="#02B77B"/>
    <path d="M15 8H16V5H15V6V8Z" fill="#035B5A"/>
    <path d="M9 10V11H11V10H9Z" fill="#02B77B"/>
    <path d="M5 7H4V8H5V7Z" fill="#02B77B"/>
    <path d="M3 6H1V7H3V6Z" fill="#C8F671"/>
</svg>
