<svg viewBox="0 0 16 12" fill="none" xmlns="http://www.w3.org/2000/svg">
    <rect y="6" width="1" height="1" fill="#035B5A"/>
    <rect y="7" width="1" height="1" fill="#035B5A"/>
    <path d="M0 5H1V6H0V5Z" fill="#035B5A"/>
    <path d="M1 4H2V5H1V4Z" fill="#035B5A"/>
    <path d="M2 4H3V5H2V4Z" fill="#035B5A"/>
    <path d="M3 5H4V6H3V5Z" fill="#035B5A"/>
    <path d="M4 4H5V5H4V4Z" fill="#035B5A"/>
    <path d="M5 3H13V4H5V3Z" fill="#035B5A"/>
    <path d="M7 2H8V3H7V2Z" fill="#035B5A"/>
    <path d="M7 1H8V2H7V1Z" fill="#035B5A"/>
    <path d="M8 0H9V1H8V0Z" fill="#035B5A"/>
    <path d="M9 0H10V1H9V0Z" fill="#035B5A"/>
    <path d="M10 1H11V2H10V1Z" fill="#035B5A"/>
    <path d="M11 2H12V3H11V2Z" fill="#035B5A"/>
    <path d="M13 4H14V5H13V4Z" fill="#035B5A"/>
    <path d="M14 4H15V5H14V4Z" fill="#035B5A"/>
    <path d="M15 5H16V6H15V5Z" fill="#035B5A"/>
    <path d="M15 6H16V7H15V6Z" fill="#035B5A"/>
    <path d="M15 7H16V8H15V7Z" fill="#035B5A"/>
    <path d="M14 8H15V9H14V8Z" fill="#035B5A"/>
    <path d="M13 8H14V9H13V8Z" fill="#035B5A"/>
    <path d="M12 9H13V10H12V9Z" fill="#035B5A"/>
    <path d="M11 9H12V10H11V9Z" fill="#035B5A"/>
    <path d="M11 10H12V11H11V10Z" fill="#035B5A"/>
    <path d="M10 11H11V12H10V11Z" fill="#035B5A"/>
    <path d="M9 11H10V12H9V11Z" fill="#035B5A"/>
    <path d="M8 10H9V11H8V10Z" fill="#035B5A"/>
    <path d="M8 9H9V10H8V9Z" fill="#035B5A"/>
    <path d="M9 9H10V10H9V9Z" fill="#035B5A"/>
    <path d="M10 9H11V10H10V9Z" fill="#035B5A"/>
    <path d="M7 9H8V10H7V9Z" fill="#035B5A"/>
    <path d="M6 9H7V10H6V9Z" fill="#035B5A"/>
    <path d="M5 9H6V10H5V9Z" fill="#035B5A"/>
    <path d="M2 8H3V9H2V8Z" fill="#035B5A"/>
    <path d="M1 8H2V9H1V8Z" fill="#035B5A"/>
    <path d="M12 5H13V6H12V5Z" fill="#035B5A"/>
    <path d="M1 6H2V7H1V6Z" fill="#C8F671"/>
    <path d="M2 6H3V7H2V6Z" fill="#C8F671"/>
    <path d="M5 4H13V5H5V4Z" fill="#C8F671"/>
    <path d="M7 5H8V8H7V5Z" fill="#C8F671"/>
    <path d="M5 5H6V8H5V5Z" fill="#C8F671"/>
    <path d="M4 5H5V7H4V5Z" fill="#C8F671"/>
    <path d="M9 5H10V8H9V5Z" fill="#C8F671"/>
    <path d="M1 5H3V6H1V5Z" fill="#02B77B"/>
    <path d="M1 7H3V8H1V7Z" fill="#02B77B"/>
    <path d="M3 6H4V7H3V6Z" fill="#02B77B"/>
    <path d="M4 7H5V8H4V7Z" fill="#02B77B"/>
    <path d="M5 8H6V9H5V8Z" fill="#02B77B"/>
    <path d="M5 8H13V9H5V8Z" fill="#02B77B"/>
    <path d="M10 7H15V8H10V7Z" fill="#02B77B"/>
    <path d="M10 5H11V7H10V5Z" fill="#02B77B"/>
    <path d="M8 5H9V8H8V5Z" fill="#02B77B"/>
    <path d="M6 5H7V8H6V5Z" fill="#02B77B"/>
    <path d="M8 1H10V2H8V1Z" fill="#02B77B"/>
    <path d="M8 2H11V3H8V2Z" fill="#02B77B"/>
    <path d="M9 10H11V11H9V10Z" fill="#02B77B"/>
    <path d="M14 6H15V7H14V6Z" fill="#02B77B"/>
    <path d="M11 6H12V7H11V6Z" fill="#C8F671"/>
    <path d="M11 5H12V6H11V5Z" fill="#C8F671"/>
    <path d="M15 5H14V6H15V5Z" fill="#C8F671"/>
    <path d="M15 5H14V6H15V5Z" fill="#C8F671"/>
    <path d="M12 6H13V7H12V6Z" fill="#035B5A"/>
    <path d="M13 6H14V7H13V6Z" fill="#035B5A"/>
    <path d="M3 7H4V8H3V7Z" fill="#035B5A"/>
    <path d="M4 8H5V9H4V8Z" fill="#035B5A"/>
</svg>
