<svg viewBox="0 0 16 11" fill="none" xmlns="http://www.w3.org/2000/svg">
    <path d="M1 9V8H3V7H2V6H1V7H0V9H1Z" fill="#CC2C31"/>
    <path d="M2 4V5H3V4H2Z" fill="#F8730C"/>
    <path d="M2 6V7H3V6H2Z" fill="#F8730C"/>
    <path d="M8 2H5V3H7H8H10H12V2H11V1H10V2H9V1H10V0H7V1H8V2Z" fill="#CC2C31"/>
    <path d="M5 4V3H4V4H5Z" fill="#CC2C31"/>
    <path d="M4 5V4H3V5H4Z" fill="#CC2C31"/>
    <path d="M1 5H2V4H3V3H1V2H0V4H1V5Z" fill="#CC2C31"/>
    <path d="M3 6V7H4V6H3Z" fill="#CC2C31"/>
    <path d="M11 9H12V8H11H10H8H7H5V9H9V10H11V9Z" fill="#CC2C31"/>
    <path d="M9 11V10H8V11H9Z" fill="#CC2C31"/>
    <path d="M12 7V8H14V7H12Z" fill="#CC2C31"/>
    <path d="M14 6V7H15V6H14Z" fill="#CC2C31"/>
    <path d="M15 5V6H16V5H15Z" fill="#CC2C31"/>
    <path d="M14 5H15V4H14V5Z" fill="#CC2C31"/>
    <path d="M12 3V4H13H14V3H12Z" fill="#CC2C31"/>
    <path d="M5 7H4V8H5V7Z" fill="#CC2C31"/>
    <path d="M3 6V5H2V6H3Z" fill="#CC2C31"/>
    <path d="M3 6H4H5V5H4H3V6Z" fill="#FFB343"/>
    <path d="M4 6V7H5V8H7V7H6V4H7V3H5V4H4V5H5V6H4Z" fill="#F8730C"/>
    <path d="M7 4H6V7H7V4Z" fill="#FFB343"/>
    <path d="M7 3V4H8V3H7Z" fill="#FFB343"/>
    <path d="M7 7V8H8V7H7Z" fill="#FFB343"/>
    <path d="M8 4H7V7H8V8H10V7H9V4H10V3H8V4Z" fill="#F8730C"/>
    <path d="M12 4V3H10V4H9V7H10V6H11V4H12Z" fill="#FFB343"/>
    <path d="M11 7V6H10V7H11Z" fill="#F8730C"/>
    <path d="M12 8V7H11V8H12Z" fill="#F8730C"/>
    <path d="M12 7H14V6H15V5H14V4H13V5V6H11V7H12Z" fill="#FFB343"/>
    <path d="M11 4V6H13V5H12V4H11Z" fill="#CC2C31"/>
    <path d="M12 5H13V4H12V5Z" fill="white"/>
    <path d="M10 7V8H11V7H10Z" fill="#FFB343"/>
</svg>
