<svg viewBox="0 0 23 16" fill="none" xmlns="http://www.w3.org/2000/svg">
    <path d="M0 2.90909H1.4375V4.36364H0V2.90909Z" fill="#CC2C31"/>
    <path d="M0 4.36364H1.4375V5.81818H0V4.36364Z" fill="#CC2C31"/>
    <path d="M1.4375 4.36364H2.875V5.81818H1.4375V4.36364Z" fill="#CC2C31"/>
    <path d="M1.4375 5.81818H2.875V7.27273H1.4375V5.81818Z" fill="#CC2C31"/>
    <path d="M2.875 7.27273H4.3125V8.72727H2.875V7.27273Z" fill="#CC2C31"/>
    <path d="M1.4375 8.72727H2.875V10.1818H1.4375V8.72727Z" fill="#CC2C31"/>
    <path d="M1.4375 10.1818H2.875V11.6364H1.4375V10.1818Z" fill="#CC2C31"/>
    <path d="M2.875 10.1818H4.3125V11.6364H2.875V10.1818Z" fill="#CC2C31"/>
    <path d="M0 11.6364H1.4375V13.0909H0V11.6364Z" fill="#CC2C31"/>
    <path d="M0 10.1818H1.4375V11.6364H0V10.1818Z" fill="#CC2C31"/>
    <path d="M2.875 4.36364H4.3125V5.81818H2.875V4.36364Z" fill="#CC2C31"/>
    <path d="M4.3125 5.81818H5.75V7.27273H4.3125V5.81818Z" fill="#CC2C31"/>
    <path d="M5.75 4.36364H7.1875V5.81818H5.75V4.36364Z" fill="#CC2C31"/>
    <path d="M7.1875 2.90909H8.625V4.36364H7.1875V2.90909Z" fill="#CC2C31"/>
    <path d="M8.625 2.90909H10.0625V4.36364H8.625V2.90909Z" fill="#CC2C31"/>
    <path d="M10.0625 2.90909H11.5V4.36364H10.0625V2.90909Z" fill="#CC2C31"/>
    <path d="M11.5 2.90909H12.9375V4.36364H11.5V2.90909Z" fill="#CC2C31"/>
    <path d="M11.5 1.45455H12.9375V2.90909H11.5V1.45455Z" fill="#CC2C31"/>
    <path d="M10.0625 0H11.5V1.45455H10.0625V0Z" fill="#CC2C31"/>
    <path d="M11.5 0H12.9375V1.45455H11.5V0Z" fill="#CC2C31"/>
    <path d="M12.9375 0H14.375V1.45455H12.9375V0Z" fill="#CC2C31"/>
    <path d="M14.375 1.45455H15.8125V2.90909H14.375V1.45455Z" fill="#CC2C31"/>
    <path d="M15.8125 2.90909H17.25V4.36364H15.8125V2.90909Z" fill="#CC2C31"/>
    <path d="M17.25 4.36364H18.6875V5.81818H17.25V4.36364Z" fill="#CC2C31"/>
    <path d="M15.8125 7.27273H17.25V8.72727H15.8125V7.27273Z" fill="#CC2C31"/>
    <path d="M17.25 7.27273H18.6875V8.72727H17.25V7.27273Z" fill="#CC2C31"/>
    <path d="M17.25 5.81818H18.6875V7.27273H17.25V5.81818Z" fill="white"/>
    <path d="M15.8125 5.81818H17.25V7.27273H15.8125V5.81818Z" fill="#CC2C31"/>
    <path d="M18.6875 4.36364H20.125V5.81818H18.6875V4.36364Z" fill="#CC2C31"/>
    <path d="M20.125 5.81818H21.5625V7.27273H20.125V5.81818Z" fill="#CC2C31"/>
    <path d="M21.5625 7.27273H23V8.72727H21.5625V7.27273Z" fill="#CC2C31"/>
    <path d="M20.125 8.72727H21.5625V10.1818H20.125V8.72727Z" fill="#CC2C31"/>
    <path d="M18.6875 10.1818H20.125V11.6364H18.6875V10.1818Z" fill="#CC2C31"/>
    <path d="M17.25 10.1818H18.6875V11.6364H17.25V10.1818Z" fill="#CC2C31"/>
    <path d="M15.8125 11.6364H17.25V13.0909H15.8125V11.6364Z" fill="#CC2C31"/>
    <path d="M12.9375 11.6364H14.375V13.0909H12.9375V11.6364Z" fill="#CC2C31"/>
    <path d="M11.5 11.6364H12.9375V13.0909H11.5V11.6364Z" fill="#CC2C31"/>
    <path d="M10.0625 11.6364H11.5V13.0909H10.0625V11.6364Z" fill="#CC2C31"/>
    <path d="M8.625 11.6364H10.0625V13.0909H8.625V11.6364Z" fill="#CC2C31"/>
    <path d="M4.3125 8.72727H5.75V10.1818H4.3125V8.72727Z" fill="#CC2C31"/>
    <path d="M5.75 10.1818H7.1875V11.6364H5.75V10.1818Z" fill="#CC2C31"/>
    <path d="M7.1875 11.6364H8.625V13.0909H7.1875V11.6364Z" fill="#CC2C31"/>
    <path d="M14.375 11.6364H15.8125V13.0909H14.375V11.6364Z" fill="#CC2C31"/>
    <path d="M14.375 13.0909H15.8125V14.5455H14.375V13.0909Z" fill="#CC2C31"/>
    <path d="M12.9375 13.0909H14.375V14.5455H12.9375V13.0909Z" fill="#CC2C31"/>
    <path d="M11.5 14.5455H12.9375V16H11.5V14.5455Z" fill="#CC2C31"/>
    <path d="M2.875 5.81818H4.3125V7.27273H2.875V5.81818Z" fill="#F8730C"/>
    <path d="M2.875 8.72727H4.3125V10.1818H2.875V8.72727Z" fill="#F8730C"/>
    <path d="M5.75 5.81818H7.1875V7.27273H5.75V5.81818Z" fill="#F8730C"/>
    <path d="M7.1875 4.36364H8.625V5.81818H7.1875V4.36364Z" fill="#F8730C"/>
    <path d="M8.625 4.36364H10.0625V5.81818H8.625V4.36364Z" fill="#F8730C"/>
    <path d="M7.1875 5.81818H8.625V7.27273H7.1875V5.81818Z" fill="#F8730C"/>
    <path d="M10.0625 5.81818H11.5V7.27273H10.0625V5.81818Z" fill="#F8730C"/>
    <path d="M10.0625 7.27273H11.5V8.72727H10.0625V7.27273Z" fill="#F8730C"/>
    <path d="M10.0625 8.72727H11.5V10.1818H10.0625V8.72727Z" fill="#F8730C"/>
    <path d="M11.5 10.1818H12.9375V11.6364H11.5V10.1818Z" fill="#F8730C"/>
    <path d="M12.9375 10.1818H14.375V11.6364H12.9375V10.1818Z" fill="#F8730C"/>
    <path d="M14.375 8.72727H15.8125V10.1818H14.375V8.72727Z" fill="#F8730C"/>
    <path d="M15.8125 10.1818H17.25V11.6364H15.8125V10.1818Z" fill="#F8730C"/>
    <path d="M11.5 5.81818H12.9375V7.27273H11.5V5.81818Z" fill="#F8730C"/>
    <path d="M11.5 7.27273H12.9375V8.72727H11.5V7.27273Z" fill="#F8730C"/>
    <path d="M11.5 8.72727H12.9375V10.1818H11.5V8.72727Z" fill="#F8730C"/>
    <path d="M11.5 4.36364H12.9375V5.81818H11.5V4.36364Z" fill="#F8730C"/>
    <path d="M12.9375 4.36364H14.375V5.81818H12.9375V4.36364Z" fill="#F8730C"/>
    <path d="M7.1875 7.27273H8.625V8.72727H7.1875V7.27273Z" fill="#F8730C"/>
    <path d="M7.1875 8.72727H8.625V10.1818H7.1875V8.72727Z" fill="#F8730C"/>
    <path d="M7.1875 10.1818H8.625V11.6364H7.1875V10.1818Z" fill="#F8730C"/>
    <path d="M5.75 8.72727H7.1875V10.1818H5.75V8.72727Z" fill="#F8730C"/>
    <path d="M5.75 7.27273H7.1875V8.72727H5.75V7.27273Z" fill="#FFB343"/>
    <path d="M10.0625 4.36364H11.5V5.81818H10.0625V4.36364Z" fill="#FFB343"/>
    <path d="M8.625 5.81818H10.0625V7.27273H8.625V5.81818Z" fill="#FFB343"/>
    <path d="M8.625 7.27273H10.0625V8.72727H8.625V7.27273Z" fill="#FFB343"/>
    <path d="M12.9375 5.81818H14.375V7.27273H12.9375V5.81818Z" fill="#FFB343"/>
    <path d="M14.375 5.81818H15.8125V7.27273H14.375V5.81818Z" fill="#FFB343"/>
    <path d="M14.375 7.27273H15.8125V8.72727H14.375V7.27273Z" fill="#FFB343"/>
    <path d="M15.8125 8.72727H17.25V10.1818H15.8125V8.72727Z" fill="#FFB343"/>
    <path d="M17.25 8.72727H18.6875V10.1818H17.25V8.72727Z" fill="#FFB343"/>
    <path d="M18.6875 8.72727H20.125V10.1818H18.6875V8.72727Z" fill="#FFB343"/>
    <path d="M18.6875 5.81818H20.125V7.27273H18.6875V5.81818Z" fill="#FFB343"/>
    <path d="M20.125 7.27273H21.5625V8.72727H20.125V7.27273Z" fill="#FFB343"/>
    <path d="M18.6875 7.27273H20.125V8.72727H18.6875V7.27273Z" fill="#FFB343"/>
    <path d="M14.375 4.36364H15.8125V5.81818H14.375V4.36364Z" fill="#FFB343"/>
    <path d="M15.8125 4.36364H17.25V5.81818H15.8125V4.36364Z" fill="#FFB343"/>
    <path d="M12.9375 7.27273H14.375V8.72727H12.9375V7.27273Z" fill="#FFB343"/>
    <path d="M14.375 10.1818H15.8125V11.6364H14.375V10.1818Z" fill="#FFB343"/>
    <path d="M12.9375 8.72727H14.375V10.1818H12.9375V8.72727Z" fill="#FFB343"/>
    <path d="M8.625 8.72727H10.0625V10.1818H8.625V8.72727Z" fill="#FFB343"/>
    <path d="M10.0625 10.1818H11.5V11.6364H10.0625V10.1818Z" fill="#FFB343"/>
    <path d="M4.3125 7.27273H5.75V8.72727H4.3125V7.27273Z" fill="#FFB343"/>
    <path d="M8.625 10.1818H10.0625V11.6364H8.625V10.1818Z" fill="#F8730C"/>
    <path d="M14.375 2.90909H15.8125V4.36364H14.375V2.90909Z" fill="#CC2C31"/>
    <path d="M12.9375 2.90909H14.375V4.36364H12.9375V2.90909Z" fill="#CC2C31"/>
</svg>
