<svg viewBox="0 0 30 12" fill="none" xmlns="http://www.w3.org/2000/svg">
    <path d="M6 9V8H4V9H6Z" fill="#010176"/>
    <path d="M4 10V9H2V10H2.5H4Z" fill="#010176"/>
    <path d="M2 11V10H1V11H2Z" fill="#010176"/>
    <path d="M0 9V10H1V9H0Z" fill="#010176"/>
    <path d="M2 6H3V5H2V6Z" fill="#010176"/>
    <path d="M0 4H1V3H0V4Z" fill="#010176"/>
    <path d="M4 3H2V4H4V3Z" fill="#010176"/>
    <path d="M6 5H5V6H6V5Z" fill="#010176"/>
    <path d="M1 2V3H2V2H1Z" fill="#010176"/>
    <path d="M1 5H2V4H1V5Z" fill="#010176"/>
    <path d="M2 7V8H3V7H2Z" fill="#010176"/>
    <path d="M1 8V9H2V8H1Z" fill="#010176"/>
    <path d="M3 6V7H4V6H3Z" fill="#010176"/>
    <path d="M2 9H4V8H6V6H5V5H4V4H2V5H3V6H4V7H3V8H2V9Z" fill="#FA82B1"/>
    <path d="M2 4V3H1V4H2Z" fill="#FA82B1"/>
    <path d="M1 9V10H2V9H1Z" fill="#FA82B1"/>
    <path d="M23 6H22V8V9H23V6Z" fill="#FFC0EB"/>
    <path d="M15 11H19V10H15V11Z" fill="#010176"/>
    <path d="M24 12V11H19V12H24Z" fill="#010176"/>
    <path d="M13 8V9H15V10H19V11H24V10H23V9H22H20H17V8H13Z" fill="#FFE9FD"/>
    <path d="M22 6V5H19V6H22Z" fill="#010176"/>
    <path d="M20 8V9H22V8H20Z" fill="#010176"/>
    <path d="M18 7H19V6H18V7Z" fill="#010176"/>
    <path d="M19 8H20V7H19V8Z" fill="#010176"/>
    <path d="M22 8V6H19V7H20V8H22Z" fill="#FA82B1"/>
    <path d="M8 6H6V8H7V7H8V6Z" fill="#010176"/>
    <path d="M11 10V11H12V10H11Z" fill="#FA82B1"/>
    <path d="M13 10H15V9H13H11V8H8H7V9H10V11H11V10H12V11H13V10Z" fill="#010176"/>
    <path d="M12 12V11H11V12H12Z" fill="#010176"/>
    <path d="M24 6V5H23V6V9V10H24V6Z" fill="#010176"/>
    <path d="M17 1V2H20V1H17Z" fill="#010176"/>
    <path d="M16 2V3H17V2H16Z" fill="#010176"/>
    <path d="M22 1H21V2H22V1Z" fill="#010176"/>
    <path d="M23 2H22V3H23V2Z" fill="#010176"/>
    <path fill-rule="evenodd" clip-rule="evenodd" d="M20 2V1H21V2H22V3H17V2H20Z" fill="#FA82B1"/>
    <path d="M20 0V1H21V0H20Z" fill="#010176"/>
    <path d="M16 3H14V4H24V5H25V4H26V3H23H22H17H16Z" fill="#010176"/>
    <path d="M13 2V3H14V2H13Z" fill="#010176"/>
    <path d="M10 4V5H13V4V3H12V4H10Z" fill="#010176"/>
    <path d="M8 5V6H10V5H8Z" fill="#010176"/>
    <path d="M13 4H14V3H13V4Z" fill="#FA82B1"/>
    <path d="M8 6V7H13V6H18H19V5H22V6H23V5H24V4H14H13V5H10V6H8Z" fill="#FFB0C9"/>
    <path d="M27 11V10H24V11H27Z" fill="#010176"/>
    <path d="M28 10V9H27V10H28Z" fill="#010176"/>
    <path d="M29 9V8H28V9H29Z" fill="#010176"/>
    <path d="M30 6H29V8H30V6Z" fill="#010176"/>
    <path d="M29 5H28V6H29V5Z" fill="#010176"/>
    <path d="M28 4H26V4.5V5H28V4Z" fill="#010176"/>
    <path d="M25 5H24V6H26H27H28V5H26V4.5V4H25V5Z" fill="#FFB0C9"/>
    <path fill-rule="evenodd" clip-rule="evenodd" d="M27 6H28H29V8H28V9H27V10H24V6H26V7H27V6Z" fill="#FFC0EB"/>
    <path d="M27 7V6H26V7H27Z" fill="#010176"/>
    <path fill-rule="evenodd" clip-rule="evenodd" d="M11 8H8V7H13V6H18V7H19V8H20V9H17V8H13V9H11V8Z" fill="#FFC0EB"/>
    <path d="M7 7V8H8V7H7Z" fill="#FFB0C9"/>
    <path d="M5 4H4V5H5V4Z" fill="#010176"/>
</svg>
