<svg viewBox="0 0 25 10" fill="none" xmlns="http://www.w3.org/2000/svg">
    <path d="M0.819694 1.63939L1.63939 1.63939V2.45908H0.819694V1.63939Z" fill="#010176"/>
    <path d="M1.63939 2.45908L2.45908 2.45908V3.27878L1.63939 3.27878L1.63939 2.45908Z" fill="#010176"/>
    <path d="M2.45908 2.45908H3.27878V3.27878H2.45908V2.45908Z" fill="#010176"/>
    <path d="M3.27878 3.27878H4.09847L4.09847 4.09847L3.27878 4.09847V3.27878Z" fill="#010176"/>
    <path d="M4.09847 4.09847H4.91817V4.91816H4.09847V4.09847Z" fill="#010176"/>
    <path d="M4.91817 4.91816H5.73786V5.73786H4.91817V4.91816Z" fill="#010176"/>
    <path d="M5.73786 4.91816H6.55755V5.73786H5.73786V4.91816Z" fill="#010176"/>
    <path d="M6.55755 4.09847H7.37725V4.91816H6.55755V4.09847Z" fill="#010176"/>
    <path d="M8.19694 7.37725H9.01664L9.01664 8.19694H8.19694L8.19694 7.37725Z" fill="#010176"/>
    <path d="M9.01664 7.37725H9.83633L9.83633 8.19694H9.01664L9.01664 7.37725Z" fill="#010176"/>
    <path d="M9.83633 7.37725H10.656L10.656 8.19694H9.83633L9.83633 7.37725Z" fill="#010176"/>
    <path d="M10.656 7.37725H11.4757L11.4757 8.19694H10.656L10.656 7.37725Z" fill="#010176"/>
    <path d="M11.4757 7.37725L12.2954 7.37725L12.2954 8.19694H11.4757L11.4757 7.37725Z" fill="#010176"/>
    <path d="M8.19694 8.19694H9.01664V9.01663H8.19694V8.19694Z" fill="#010176"/>
    <path d="M9.01664 9.01663H9.83633V9.83633H9.01664V9.01663Z" fill="#010176"/>
    <path d="M9.83633 8.19694H10.656V9.01663H9.83633V8.19694Z" fill="#010176"/>
    <path d="M7.37725 4.09847H8.19694V4.91816H7.37725V4.09847Z" fill="#010176"/>
    <path d="M8.19694 3.27878H9.01664V4.09847H8.19694V3.27878Z" fill="#010176"/>
    <path d="M9.01664 3.27878H9.83633V4.09847H9.01664V3.27878Z" fill="#010176"/>
    <path d="M9.83633 3.27878L10.656 3.27878V4.09847H9.83633V3.27878Z" fill="#010176"/>
    <path d="M9.83633 2.45908L10.656 2.45908V3.27878L9.83633 3.27878V2.45908Z" fill="#010176"/>
    <path d="M10.656 1.63939L11.4757 1.63939V2.45908H10.656V1.63939Z" fill="#010176"/>
    <path d="M11.4757 2.45908H12.2954V3.27878H11.4757V2.45908Z" fill="#010176"/>
    <path d="M13.9348 2.45908L14.7545 2.45908V3.27878L13.9348 3.27878V2.45908Z" fill="#010176"/>
    <path d="M16.3939 2.45908H17.2136V3.27878H16.3939V2.45908Z" fill="#010176"/>
    <path d="M18.853 2.45908H19.6727V3.27878H18.853V2.45908Z" fill="#010176"/>
    <path d="M12.2954 2.45908H13.1151V3.27878H12.2954V2.45908Z" fill="#010176"/>
    <path d="M14.7545 2.45908H15.5742V3.27878H14.7545V2.45908Z" fill="#010176"/>
    <path d="M17.2136 2.45908L18.0333 2.45908V3.27878L17.2136 3.27878V2.45908Z" fill="#010176"/>
    <path d="M19.6727 2.45908H20.4924V3.27878H19.6727V2.45908Z" fill="#010176"/>
    <path d="M21.312 3.27878L22.1317 3.27878V4.09847H21.312V3.27878Z" fill="#010176"/>
    <path d="M13.1151 2.45908H13.9348V3.27878H13.1151V2.45908Z" fill="#010176"/>
    <path d="M15.5742 2.45908H16.3939V3.27878H15.5742V2.45908Z" fill="#010176"/>
    <path d="M15.5742 4.09847H16.3939V4.91816H15.5742V4.09847Z" fill="#010176"/>
    <path d="M14.7545 4.91816H15.5742V5.73786H14.7545V4.91816Z" fill="#010176"/>
    <path d="M15.5742 5.73786H16.3939V6.55755H15.5742V5.73786Z" fill="#010176"/>
    <path d="M16.3939 6.55755H17.2136V7.37725H16.3939V6.55755Z" fill="#010176"/>
    <path d="M17.2136 6.55755H18.0333V7.37725H17.2136V6.55755Z" fill="#010176"/>
    <path d="M16.3939 4.09847H17.2136V4.91816H16.3939V4.09847Z" fill="#010176"/>
    <path d="M17.2136 4.09847H18.0333V4.91816H17.2136V4.09847Z" fill="#010176"/>
    <path d="M18.0333 2.45908H18.853V3.27878H18.0333V2.45908Z" fill="#010176"/>
    <path d="M20.4924 2.45908H21.312V3.27878H20.4924V2.45908Z" fill="#010176"/>
    <path d="M19.6727 3.27878H20.4924V4.09847L19.6727 4.09847V3.27878Z" fill="#010176"/>
    <path d="M18.853 4.09847H19.6727V4.91816H18.853V4.09847Z" fill="#010176"/>
    <path d="M18.853 4.91816H19.6727V5.73786H18.853V4.91816Z" fill="#010176"/>
    <path d="M18.853 5.73786H19.6727V6.55755H18.853V5.73786Z" fill="#010176"/>
    <path d="M18.853 7.37725H19.6727V8.19694H18.853V7.37725Z" fill="#010176"/>
    <path d="M18.853 6.55755H19.6727V7.37725H18.853V6.55755Z" fill="#010176"/>
    <path d="M22.1317 3.27878H22.9514V4.09847H22.1317V3.27878Z" fill="#010176"/>
    <path d="M22.9514 4.09847H23.7711V4.91816H22.9514V4.09847Z" fill="#010176"/>
    <path d="M23.7711 4.91816H24.5908V5.73786H23.7711V4.91816Z" fill="#010176"/>
    <path d="M23.7711 5.73786H24.5908V6.55755H23.7711V5.73786Z" fill="#010176"/>
    <path d="M22.9514 6.55755H23.7711V7.37725H22.9514V6.55755Z" fill="#010176"/>
    <path d="M22.1317 7.37725H22.9514V8.19694H22.1317V7.37725Z" fill="#010176"/>
    <path d="M19.6727 8.19694H22.1317V9.01663H19.6727V8.19694Z" fill="#010176"/>
    <path d="M15.5742 9.01663H19.6727V9.83633H15.5742V9.01663Z" fill="#010176"/>
    <path d="M12.2954 8.19694H15.5742V9.01663H12.2954V8.19694Z" fill="#010176"/>
    <path d="M5.73786 6.55755H9.01664V7.37725H5.73786V6.55755Z" fill="#010176"/>
    <path d="M13.1151 1.63939H13.9348V2.45908H13.1151V1.63939Z" fill="#010176"/>
    <path d="M13.9348 0.819694L14.7545 0.819694V1.63939H13.9348V0.819694Z" fill="#010176"/>
    <path d="M14.7545 0.819694L15.5742 0.819694V1.63939L14.7545 1.63939V0.819694Z" fill="#010176"/>
    <path d="M15.5742 0.819694H16.3939V1.63939H15.5742V0.819694Z" fill="#010176"/>
    <path d="M16.3939 0L17.2136 0V0.819694L16.3939 0.819694V0Z" fill="#010176"/>
    <path d="M17.2136 0.819694L18.0333 0.819694V1.63939H17.2136V0.819694Z" fill="#010176"/>
    <path d="M18.0333 1.63939H18.853V2.45908H18.0333V1.63939Z" fill="#010176"/>
    <path d="M4.91817 5.73786H5.73786V6.55755H4.91817V5.73786Z" fill="#010176"/>
    <path d="M4.09847 6.55755H4.91817V7.37725H4.09847V6.55755Z" fill="#010176"/>
    <path d="M3.27878 6.55755L4.09847 6.55755V7.37725L3.27878 7.37725V6.55755Z" fill="#010176"/>
    <path d="M2.45908 7.37725H3.27878V8.19694H2.45908V7.37725Z" fill="#010176"/>
    <path d="M1.63939 7.37725H2.45908V8.19694H1.63939V7.37725Z" fill="#010176"/>
    <path d="M0.819694 8.19694H1.63939L1.63939 9.01663H0.819694L0.819694 8.19694Z" fill="#010176"/>
    <path d="M0 7.37725H0.819694L0.819694 8.19694H0L0 7.37725Z" fill="#010176"/>
    <path d="M0.819694 6.55755H1.63939L1.63939 7.37725H0.819694V6.55755Z" fill="#010176"/>
    <path d="M1.63939 5.73786H2.45908L2.45908 6.55755H1.63939V5.73786Z" fill="#010176"/>
    <path d="M2.45908 4.91816H3.27878V5.73786H2.45908V4.91816Z" fill="#010176"/>
    <path d="M1.63939 4.09847H2.45908V4.91816H1.63939V4.09847Z" fill="#010176"/>
    <path d="M0 2.45908H0.819694L0.819694 3.27878H0L0 2.45908Z" fill="#010176"/>
    <path d="M0.819694 3.27878H1.63939V4.09847H0.819694L0.819694 3.27878Z" fill="#010176"/>
    <path d="M3.27878 4.91816L4.91817 4.91816V6.55755L3.27878 6.55755L3.27878 4.91816Z" fill="#FA82B1"/>
    <path d="M2.45908 4.09847L4.09847 4.09847V4.91816L2.45908 4.91816V4.09847Z" fill="#FA82B1"/>
    <path d="M1.63939 3.27878L3.27878 3.27878V4.09847H1.63939V3.27878Z" fill="#FA82B1"/>
    <path d="M1.63939 6.55755H3.27878V7.37725H1.63939L1.63939 6.55755Z" fill="#FA82B1"/>
    <path d="M2.45908 5.73786H3.27878L3.27878 6.55755H2.45908L2.45908 5.73786Z" fill="#FA82B1"/>
    <path d="M0.819694 7.37725H1.63939V8.19694H0.819694L0.819694 7.37725Z" fill="#FA82B1"/>
    <path d="M0.819694 2.45908H1.63939L1.63939 3.27878H0.819694L0.819694 2.45908Z" fill="#FA82B1"/>
    <path d="M10.656 2.45908H11.4757V3.27878H10.656V2.45908Z" fill="#FA82B1"/>
    <path d="M13.9348 1.63939L18.0333 1.63939V2.45908L13.9348 2.45908V1.63939Z" fill="#FA82B1"/>
    <path d="M9.01664 8.19694H9.83633V9.01663H9.01664V8.19694Z" fill="#FA82B1"/>
    <path d="M16.3939 0.819694L17.2136 0.819694V1.63939L16.3939 1.63939V0.819694Z" fill="#FA82B1"/>
    <path d="M5.73786 5.73786H6.55755V6.55755H5.73786V5.73786Z" fill="#FFB0C9"/>
    <path d="M18.0333 4.09847H18.853V4.91816H18.0333V4.09847Z" fill="#FFB0C9"/>
    <path d="M6.55755 4.91816H8.19694V5.73786H6.55755V4.91816Z" fill="#FFB0C9"/>
    <path d="M15.5742 3.27878L19.6727 3.27878V4.09847H15.5742V3.27878Z" fill="#FFB0C9"/>
    <path d="M19.6727 4.09847L22.9514 4.09847V4.91816L19.6727 4.91816V4.09847Z" fill="#FFB0C9"/>
    <path d="M20.4924 3.27878H21.312V4.09847H20.4924V3.27878Z" fill="#FFB0C9"/>
    <path d="M6.55755 5.73786H10.656V6.55755H6.55755V5.73786Z" fill="#FFC0EB"/>
    <path d="M13.9348 6.55755H16.3939V7.37725H13.9348V6.55755Z" fill="#FFC0EB"/>
    <path d="M19.6727 7.37725L22.1317 7.37725V8.19694H19.6727V7.37725Z" fill="#FFC0EB"/>
    <path d="M14.7545 5.73786H15.5742V6.55755H14.7545V5.73786Z" fill="#FFC0EB"/>
    <path d="M9.01664 6.55755H10.656V7.37725H9.01664V6.55755Z" fill="#FFC0EB"/>
    <path d="M18.0333 4.91816H18.853V7.37725H18.0333V4.91816Z" fill="#FFC0EB"/>
    <path d="M22.9514 4.91816H23.7711V6.55755H22.9514V4.91816Z" fill="#FFC0EB"/>
    <path d="M19.6727 4.91816L22.9514 4.91816V7.37725L19.6727 7.37725V4.91816Z" fill="#FFC0EB"/>
    <path d="M10.656 6.55755L12.2954 6.55755V7.37725L10.656 7.37725V6.55755Z" fill="#FFE9FD"/>
    <path d="M12.2954 6.55755H13.9348L13.9348 8.19694H12.2954L12.2954 6.55755Z" fill="#FFE9FD"/>
    <path d="M13.9348 7.37725H18.853V8.19694H13.9348L13.9348 7.37725Z" fill="#FFE9FD"/>
    <path d="M15.5742 8.19694H19.6727V9.01663H15.5742V8.19694Z" fill="#FFE9FD"/>
    <path d="M10.656 4.91816L14.7545 4.91816V6.55755L10.656 6.55755V4.91816Z" fill="#FFC0EB"/>
    <path d="M8.19694 4.09847H10.656V5.73786H8.19694V4.09847Z" fill="#FFB0C9"/>
    <path d="M10.656 3.27878L15.5742 3.27878V4.91816L10.656 4.91816V3.27878Z" fill="#FFB0C9"/>
    <path d="M15.5742 4.91816H18.0333V5.73786H15.5742V4.91816Z" fill="#FA82B1"/>
    <path d="M16.3939 5.73786H18.0333V6.55755H16.3939V5.73786Z" fill="#FA82B1"/>
    <path d="M21.312 4.91816H22.1317V5.73786H21.312V4.91816Z" fill="#010176"/>
</svg>
