<svg viewBox="0 0 15 13" fill="none" xmlns="http://www.w3.org/2000/svg">
    <path fill-rule="evenodd" clip-rule="evenodd"
          d="M7 13V0H4V1H3V2H1V3H0V10H1V11H3V12H4V13H7ZM5 12H6V1H5V2H4V3H2V4H1V9H2V10H4V11H5V12Z" fill="currentColor"/>
    <rect x="9" y="3" width="1" height="2" fill="currentColor"/>
    <rect x="8" y="2" width="1" height="1" fill="currentColor"/>
    <rect x="10" y="5" width="1" height="1" fill="currentColor"/>
    <rect x="11" y="6" width="1" height="1" fill="currentColor"/>
    <rect x="12" y="7" width="1" height="1" fill="currentColor"/>
    <rect x="13" y="8" width="1" height="2" fill="currentColor"/>
    <rect x="12" y="5" width="1" height="1" fill="currentColor"/>
    <rect x="13" y="3" width="1" height="2" fill="currentColor"/>
    <rect x="14" y="2" width="1" height="1" fill="currentColor"/>
    <rect x="10" y="7" width="1" height="1" fill="currentColor"/>
    <rect x="9" y="8" width="1" height="2" fill="currentColor"/>
    <rect x="14" y="10" width="1" height="1" fill="currentColor"/>
    <rect x="8" y="10" width="1" height="1" fill="currentColor"/>
</svg>
