<svg viewBox="0 0 13 13" fill="none" xmlns="http://www.w3.org/2000/svg">
    <path fill-rule="evenodd" clip-rule="evenodd"
          d="M7 13V0H4V1H3V2H1V3H0V10H1V11H3V12H4V13H7ZM5 12H6V1H5V2H4V3H2V4H1V9H2V10H4V11H5V12Z" fill="currentColor"/>
    <path d="M9 4V9H10V4H9Z" fill="currentColor"/>
    <path d="M9 3H8V4H9V3Z" fill="currentColor"/>
    <path d="M8 9V10H9V9H8Z" fill="currentColor"/>
    <path d="M11 11H10V12H11V11Z" fill="currentColor"/>
    <path d="M12 9H11V11H12V9Z" fill="currentColor"/>
    <path d="M13 9V4H12V9H13Z" fill="currentColor"/>
    <path d="M11 2V4H12V2H11Z" fill="currentColor"/>
    <path d="M11 1H10V2H11V1Z" fill="currentColor"/>
</svg>
