<svg viewBox="0 0 24 24" fill="none" xmlns="http://www.w3.org/2000/svg">
    <path d="M24 7.05882V1.41176H22.6667V0H1.33333V1.41176H0V22.5882H1.33333V24H22.6667V22.5882H24V7.05882Z"
          fill="#2C9CEB"/>
    <path d="M7.46154 7.42857H4V10.8571H5.15385V12H6.30769V13.1429H7.46154V14.2857H8.61538V13.1429H9.76923V12H10.9231V10.8571H12.0769V9.71429H13.2308V8.57143H14.3846V10.8571H13.2308V12H12.0769V13.1429H10.9231V14.2857H9.76923V16.5714H10.9231V17.7143H12.0769V18.8571H13.2308V20H15.5385V18.8571H16.6923V14.2857H17.8462V9.71429H19V5.14286H17.8462V4H17.2692H14.3846V5.14286H10.9231V6.28571H7.46154V7.42857Z"
          fill="white"/>
</svg>
