<svg viewBox="0 0 24 24" fill="none" xmlns="http://www.w3.org/2000/svg">
    <path d="M24 7.05882V1.41176H22.6667V0H1.33333V1.41176H0V22.5882H1.33333V24H22.6667V22.5882H24V7.05882Z"
          fill="#2C9CEB"/>
    <path d="M3 5H4.0625V6.07692H6.1875V7.15385H8.3125V8.23077H9.375V7.15385H10.4375V6.07692H11.5V5H15.75V6.07692H16.8125V7.15385H17.875V8.23077H20V9.30769H18.9375V11.4615H17.875V12.5385H16.8125V15.7692H15.75V16.8462H13.625V17.9231H9.375V19H5.125V17.9231H4.0625V16.8462H6.1875V15.7692H7.25V14.6923H6.1875V13.6154H5.125V11.4615H4.0625V8.23077H3V5Z"
          fill="white"/>
</svg>
