<svg viewBox="0 0 8 8" fill="none" xmlns="http://www.w3.org/2000/svg">
    <path d="M1 5H7V7H1V5Z" fill="#B52D1B"/>
    <path d="M1 1H7V3H1V1Z" fill="#E1E7EE"/>
    <path d="M2 1H1V2H2V1Z" fill="#181425"/>
    <path d="M1 6V7H2V6H1Z" fill="#181425"/>
    <path d="M0 2V6H1V2H0Z" fill="#181425"/>
    <path d="M2 7V8H6V7H2Z" fill="#181425"/>
    <path d="M6 7H7V6H6V7Z" fill="#181425"/>
    <path d="M7 6H8V2H7V6Z" fill="#181425"/>
    <path d="M7 2V1H6V2H7Z" fill="#181425"/>
    <path d="M6 1V0H2V1H6Z" fill="#181425"/>
    <rect x="1" y="3" width="6" height="2" fill="#19578C"/>
    <rect x="1" y="4" width="1" height="1" fill="#143464"/>
    <rect x="6" y="4" width="1" height="1" fill="#143464"/>
    <rect x="5" y="1" width="1" height="1" fill="#C0CBDC"/>
    <rect x="2" y="2" width="1" height="1" fill="white"/>
    <rect x="5" y="6" width="1" height="1" fill="#9E1C1F"/>
</svg>
