<svg viewBox="0 0 8 8" fill="none" xmlns="http://www.w3.org/2000/svg">
    <rect x="1" y="1" width="6" height="6" fill="#DF3E23"/>
    <rect x="1" y="1" width="4" height="4" fill="#1E7BB5"/>
    <path d="M2 1H1V2H2V1Z" fill="#181425"/>
    <path d="M1 6V7H2V6H1Z" fill="#181425"/>
    <path d="M0 2V6H1V2H0Z" fill="#181425"/>
    <path d="M2 7V8H6V7H2Z" fill="#181425"/>
    <path d="M6 7H7V6H6V7Z" fill="#181425"/>
    <path d="M7 6H8V2H7V6Z" fill="#181425"/>
    <path d="M7 2V1H6V2H7Z" fill="#181425"/>
    <path d="M6 1V0H2V1H6Z" fill="#181425"/>
    <rect x="1" y="5" width="6" height="1" fill="#C0CBDC"/>
    <rect x="5" y="2" width="2" height="1" fill="#E1E7EE"/>
    <rect x="2" y="2" width="1" height="1" fill="#E1E7EE"/>
    <rect x="3" y="3" width="1" height="1" fill="#C0CBDC"/>
    <rect x="1" y="3" width="1" height="1" fill="#E1E7EE"/>
    <rect x="6" y="4" width="1" height="1" fill="#B52D1B"/>
    <rect x="5" y="6" width="1" height="1" fill="#B52D1B"/>
    <rect x="1" y="4" width="1" height="1" fill="#19578C"/>
</svg>
